# AST/ASF file generated using VICON BodyLanguage
# -----------------------------------------------
:version 1.10
:name VICON
:units
  mass 1.0
  length 0.45
  angle deg
:documentation
   .ast/.asf automatically generated from VICON data using
   VICON BodyBuilder and BodyLanguage model FoxedUp or BRILLIANT.MOD
:root
   order TX TY TZ RX RY RZ
   axis XYZ
   position 0 0 0  
   orientation 0 0 0 
:bonedata
  begin
     id 1 
     name lhipjoint
     direction 0.645422 -0.672597 0.361999 
     length 2.39934 
     axis 0 0 0  XYZ
  end
  begin
     id 2 
     name lfemur
     direction 0.34202 -0.939693 0  
     length 6.58112  
     axis 0 0 20  XYZ
    dof rx ry rz
    limits (-160.0 20.0)
           (-70.0 70.0)
           (-60.0 70.0)
  end
  begin
     id 3 
     name ltibia
     direction 0.34202 -0.939693 0   
     length 7.02673   
     axis 0 0 20   XYZ
    dof rx
    limits (-10.0 170.0)
  end
  begin
     id 4 
     name lfoot
     direction 0.0835106 -0.229444 0.969733   
     length 2.08772   
     axis -90 7.62852e-016 20   XYZ
    dof rx rz
    limits (-45.0 90.0)
           (-70.0 20.0)
  end
  begin
     id 5 
     name ltoes
     direction 1.5358e-011 -4.21925e-011 1   
     length 1.04844   
     axis -90 7.62852e-016 20   XYZ
    dof rx
    limits (-90.0 20.0)
  end
  begin
     id 6 
     name rhipjoint
     direction -0.644959 -0.672941 0.362185   
     length 2.39812  
     axis 0 0 0  XYZ 
  end
  begin
     id 7 
     name rfemur
     direction -0.34202 -0.939693 0   
     length 6.67015   
     axis 0 0 -20   XYZ
    dof rx ry rz
    limits (-160.0 20.0)
           (-70.0 70.0)
           (-70.0 60.0)
  end
  begin
     id 8 
     name rtibia
     direction -0.34202 -0.939693 0   
     length 7.35735   
     axis 0 0 -20   XYZ
    dof rx
    limits (-10.0 170.0)
 end
 begin
     id 9 
     name rfoot
     direction -0.0670769 -0.184292 0.98058   
     length 2.25469  
     axis -90 -7.62852e-016 -20   XYZ
    dof rx rz
    limits (-45.0 90.0)
           (-20.0 70.0)
  end
  begin
     id 10 
     name rtoes
     direction -1.53575e-011 -4.21908e-011 1   
     length 1.13399   
     axis -90 -7.62852e-016 -20   XYZ
    dof rx
    limits (-90.0 20.0)
  end
  begin
     id 11 
     name lowerback
     direction -0.0188328 0.993434 -0.112847   
     length 2.27656   
     axis 0 0 0   XYZ
    dof rx ry rz
    limits (-20.0 45.0)
           (-30.0 30.0)
           (-30.0 30.0)
  end
  begin
     id 12 
     name upperback
     direction 0.00983139 0.998968 -0.04435   
     length 2.28631   
     axis 0 0 0   XYZ
    dof rx ry rz
    limits (-20.0 45.0)
           (-30.0 30.0)
           (-30.0 30.0)
  end
  begin
     id 13 
     name thorax
     direction 0.0177718 0.999807 0.00833073   
     length 2.30999   
     axis 0 0 0   XYZ
    dof rx ry rz
    limits (-20.0 45.0)
           (-30.0 30.0)
           (-30.0 30.0)
  end
  begin
     id 14 
     name lowerneck
     direction -0.0835025 0.993181 0.0813558   
     length 1.39447   
     axis 0 0 0   XYZ
    dof rx ry rz
    limits (-20.0 45.0)
           (-30.0 30.0)
           (-30.0 30.0)
  end
  begin
     id 15 
     name upperneck
     direction 0.210059 0.976535 0.0474817   
     length 1.39882   
     axis 0 0 0   XYZ
    dof rx ry rz
    limits (-20.0 45.0)
           (-30.0 30.0)
           (-30.0 30.0)
  end
  begin
     id 16
     name head
     direction 0.0780891 0.996944 -0.00207154  
     length 1.41828  
     axis 0 0 0   XYZ
    dof rx ry rz
    limits (-20.0 45.0)
           (-30.0 30.0)
           (-30.0 30.0)
  end
  begin
     id 17 
     name lclavicle
     direction 0.982414 0.166355 -0.0847829  
     length 3.57922  
     axis 0 0 0   XYZ
    dof ry rz
    limits (-20.0 10.0)
           (0.0 20.0)
  end
  begin
     id 18 
     name lhumerus
     direction 1 -4.48975e-011 5.47647e-028   
     length 4.76405   
     axis -180 -30 -90   XYZ
    dof rx ry rz
    limits (-60.0 90.0)
           (-90.0 90.0)
           (-90.0 90.0)
  end
  begin
     id 19
     name lradius
     direction 1 -4.48949e-011 -8.32142e-027   
     length 3.13759   
     axis -180 -30 -90   XYZ
    dof rx
    limits (-10.0 170.0)
  end
  begin
     id 20
     name lwrist
     direction 1 -4.48978e-011 -1.32705e-026   
     length 1.56879   
     axis 9.60836e-015 90 90   XYZ
    dof ry
    limits (-180.0 0.0)
 end
  begin
     id 21 
     name lhand
     direction 1 -4.48975e-011 -2.65409e-026   
     length 0.732262   
     axis 1.69354e-014 90 90   XYZ
    dof rx rz
    limits (-90.0 90.0)
           (-45.0 45.0)
  end
  begin
     id 22 
     name lfingers
     direction 1 -4.48923e-011 -5.30819e-026   
     length 0.590368   
     axis 3.38708e-014 90 90   XYZ
    dof rx
    limits (0.0 90.0)
  end
  begin
     id 23
     name lthumb
     direction 0.707107 -6.34914e-011 0.707107   
     length 0.847654   
     axis -90 45 2.85299e-015   XYZ
    dof rx rz
    limits (-45.0 45.0)
           (-45.0 45.0)
  end
  begin
     id 24 
     name rclavicle
     direction -0.963658 0.245183 -0.106063   
     length 3.43472  
     axis 0 0 0   XYZ 
    dof ry rz
    limits (-10.0 20.0)
           (-20.0 0.0)
  end
  begin
     id 25 
     name rhumerus
     direction -1 -4.48963e-011 -1.64784e-027  
     length 5.10161   
     axis -180 30 90   XYZ
    dof rx ry rz
    limits (-90.0 60.0)
           (-90.0 90.0)
           (-90.0 90.0)
  end
  begin
     id 26 
     name rradius
     direction -1 -4.48969e-011 -2.87943e-027   
     length 3.23267   
     axis -180 30 90   XYZ
    dof rx
    limits (-10.0 170.0)
  end
  begin
     id 27 
     name rwrist
     direction -1 -4.48982e-011 -1.32705e-026   
     length 1.61633   
     axis 9.60836e-015 -90 -90   XYZ
    dof ry
    limits (-180.0 0.0)
  end
  begin
     id 28
     name rhand
     direction -1 -4.48963e-011 -2.65409e-026   
     length 0.702   
     axis 1.69354e-014 -90 -90   XYZ
    dof rx rz
    limits (-90.0 90.0)
           (-45.0 45.0)
  end
  begin
     id 29
     name rfingers
     direction -1 -4.48934e-011 -5.30819e-026   
     length 0.565971   
     axis 3.38708e-014 -90 -90   XYZ
    dof rx
    limits (0.0 90.0)
  end
  begin
     id 30
     name rthumb
     direction -0.707107 -6.34908e-011 0.707107   
     length 0.812624   
     axis -90 -45 -2.85299e-015   XYZ
    dof rx rz
    limits (-45.0 45.0)
           (-45.0 45.0)
  end
:hierarchy
  begin
    root lhipjoint rhipjoint lowerback
    lhipjoint lfemur
    lfemur ltibia
    ltibia lfoot
    lfoot ltoes
    rhipjoint rfemur
    rfemur rtibia
    rtibia rfoot
    rfoot rtoes
    lowerback upperback
    upperback thorax
    thorax lowerneck lclavicle rclavicle
    lowerneck upperneck
    upperneck head
    lclavicle lhumerus
    lhumerus lradius
    lradius lwrist
    lwrist lhand lthumb
    lhand lfingers
    rclavicle rhumerus
    rhumerus rradius
    rradius rwrist
    rwrist rhand rthumb
    rhand rfingers
  end

#!OML:ASF \\sashay\E\basketball\basketball\Project 1\Capture day 1\Session 1\Subject.ASF
:FULLY-SPECIFIED
:DEGREES
66
root -24.7193 12.6944 4.51295 22.9766 80.4153 8.04647
lowerback 32.199 -6.1864 7.93399
upperback 10.7177 -4.05975 2.19374
thorax -5.0228 -1.43079 -0.576794
lowerneck -8.10252 2.4829 -8.5289
upperneck -32.3477 7.63631 7.74261
head -9.54297 4.79339 3.69382
rclavicle -1.55052e-014 3.18055e-015
rhumerus 13.7596 -7.58423 -79.5365
rradius 81.8104
rwrist -23.3551
rhand 18.4623 11.6739
rfingers 7.12502
rthumb 43.1 -12.5366
lclavicle -1.55052e-014 3.18055e-015
lhumerus -49.2079 2.98847 84.1903
lradius 42.4353
lwrist 19.1873
lhand -38.2342 37.8665
lfingers 7.12502
lthumb -11.2651 67.544
rfemur -38.5645 -3.65514 -13.2362
rtibia 61.9671
rfoot -24.0901 -23.8276
rtoes -55.9173
lfemur -34.3247 33.9064 -6.62692
ltibia 99.2818
lfoot -12.4677 -2.87037
ltoes -21.3739
67
root -24.5376 12.7045 4.43036 22.8552 81.5141 7.23777
lowerback 32.4481 -5.6569 8.35518
upperback 10.6654 -3.23097 2.14465
thorax -5.13773 -1.02427 -1.11383
lowerneck -6.82133 1.7802 -8.23143
upperneck -32.6363 6.75514 8.59573
head -9.79045 4.2296 3.98881
rclavicle 3.97569e-015 -4.73108e-014
rhumerus 12.37 -7.06937 -80.2887
rradius 86.918
rwrist -17.9733
rhand 14.6789 10.9777
rfingers 7.12502
rthumb 39.5493 -14.3828
lclavicle 3.97569e-015 -4.73108e-014
lhumerus -53.325 3.44287 82.603
lradius 46.939
lwrist 20.5293
lhand -37.9008 37.545
lfingers 7.12502
lthumb -10.9436 67.2398
rfemur -36.9174 -4.73944 -13.0333
rtibia 60.3813
rfoot -24.168 -23.8879
rtoes -55.9264
lfemur -37.904 34.4205 -6.58349
ltibia 99.9951
lfoot -13.056 -1.34019
ltoes -19.8834
68
root -24.3434 12.7215 4.34666 22.7333 82.7077 6.52931
lowerback 32.5069 -4.8418 8.12441
upperback 10.7786 -2.20189 2.74225
thorax -4.94243 -0.530968 -0.720716
lowerneck -6.21671 0.917781 -8.78066
upperneck -32.1294 5.52699 9.37679
head -9.59584 3.60022 4.43966
rclavicle 2.38542e-015 2.8625e-014
rhumerus 10.8465 -5.99197 -80.104
rradius 91.9841
rwrist -12.3003
rhand 10.4716 10.4946
rfingers 7.12502
rthumb 35.5735 -15.9256
lclavicle 2.38542e-015 2.8625e-014
lhumerus -56.756 5.07752 81.4038
lradius 51.3502
lwrist 21.7109
lhand -37.4215 36.8503
lfingers 7.12502
lthumb -10.4813 66.569
rfemur -35.0323 -5.99243 -12.8532
rtibia 58.6543
rfoot -24.734 -23.3038
rtoes -56.0116
lfemur -41.3543 34.7717 -6.60129
ltibia 100.418
lfoot -14.0405 0.310479
ltoes -20.1465
69
root -24.1361 12.7412 4.25927 22.3692 84.1378 5.70873
lowerback 31.6746 -4.10424 8.26698
upperback 11.6549 -1.29488 3.12591
thorax -4.13911 -0.0321613 -0.841042
lowerneck -5.73829 -0.205463 -9.24049
upperneck -32.7081 4.16338 10.3337
head -9.75652 2.9346 4.97621
rclavicle -7.95139e-016 2.54444e-014
rhumerus 9.32399 -5.14773 -80.4889
rradius 96.6932
rwrist -6.05997
rhand 5.91009 10.5621
rfingers 7.12502
rthumb 31.2376 -16.7938
lclavicle -7.95139e-016 2.54444e-014
lhumerus -59.1034 6.72244 79.6638
lradius 55.5276
lwrist 22.7093
lhand -36.441 35.6666
lfingers 7.12502
lthumb -9.53537 65.4308
rfemur -32.6756 -7.30152 -12.6275
rtibia 56.6675
rfoot -24.9649 -23.0828
rtoes -56.1303
lfemur -44.6369 34.855 -6.62273
ltibia 100.523
lfoot -15.4308 1.99266
ltoes -19.9337
70
root -23.9236 12.753 4.17104 22.2013 85.7669 5.18322
lowerback 32.1645 -3.54381 8.52751
upperback 11.1303 -0.391626 3.42072
thorax -4.31438 0.382669 -0.83028
lowerneck -4.05328 -1.15578 -9.59049
upperneck -32.9983 2.73344 11.0629
head -9.99524 2.15859 5.41673
rclavicle 4.45278e-014 5.24792e-014
rhumerus 6.48769 -3.81785 -81.091
rradius 100.83
rwrist 0.535504
rhand 0.802842 10.9614
rfingers 7.12502
rthumb 26.3591 -17.2266
lclavicle 4.45278e-014 5.24792e-014
lhumerus -61.9692 8.46435 78.0821
lradius 59.5889
lwrist 22.488
lhand -36.0705 35.3486
lfingers 7.12502
lthumb -9.17779 65.1288
rfemur -29.8618 -8.61044 -12.3857
rtibia 54.3957
rfoot -23.9576 -24.0909
rtoes -56.2647
lfemur -47.8399 34.6809 -6.7351
ltibia 100.313
lfoot -16.5993 3.69913
ltoes -19.224
